<svg xmlns="http://www.w3.org/2000/svg" viewBox="0 0 512 512" role="img" aria-label="Reimbursements Online">
  <defs>
    <linearGradient id="bg" x1="0" y1="0" x2="1" y2="1">
      <stop offset="0" stop-color="#0f766e"/>
      <stop offset="1" stop-color="#0b1120"/>
    </linearGradient>
  </defs>
  <rect width="512" height="512" rx="96" fill="url(#bg)"/>
  <!-- receipt -->
  <g transform="translate(150 96)">
    <path d="M0 16 A16 16 0 0 1 16 0 H196 A16 16 0 0 1 212 16 V320 L180 300 L148 320 L116 300 L84 320 L52 300 L20 320 L0 300 Z"
          fill="#f8fafc"/>
    <g stroke="#0f766e" stroke-width="14" stroke-linecap="round">
      <line x1="40" y1="70" x2="172" y2="70"/>
      <line x1="40" y1="120" x2="172" y2="120"/>
      <line x1="40" y1="170" x2="120" y2="170"/>
    </g>
    <!-- checkmark badge -->
    <circle cx="172" cy="232" r="52" fill="#22c55e"/>
    <path d="M150 232 l16 18 l30 -38" fill="none" stroke="#ffffff" stroke-width="16"
          stroke-linecap="round" stroke-linejoin="round"/>
  </g>
</svg>
